<svg width="150" height="68" viewBox="0 0 150 68" fill="none" xmlns="http://www.w3.org/2000/svg">
<path d="M59.9766 23.7197H64.8574C64.8574 24.3579 65.4581 24.7897 68.5556 24.7897C71.4465 24.7897 71.8783 24.602 71.8783 24.1139C71.8783 23.5507 71.4465 23.4756 68.3678 23.3818C62.4358 23.1941 60.1643 22.2179 60.1643 19.158C60.1643 16.2671 62.999 15.0281 68.1801 15.0281C73.305 15.0281 76.1959 16.2671 76.1959 19.6273H71.3151C71.3151 18.9327 70.1888 18.7825 67.8047 18.7825C65.5144 18.7825 65.0451 18.8952 65.0451 19.402C65.0451 19.9089 65.5144 19.8901 68.3678 20.0028C73.549 20.2092 76.7591 20.5659 76.7591 24.0013C76.7591 27.6243 73.7555 28.5442 68.3678 28.5442C62.9802 28.5442 59.9766 27.6243 59.9766 23.7197ZM77.3278 21.7674C77.3278 17.2057 79.8058 15.0281 85.5877 15.0281C90.8439 15.0281 93.5847 16.8678 93.7912 21.0165H88.7977C88.61 19.7775 87.6526 19.158 85.5877 19.158C82.6967 19.158 82.2086 20.3782 82.2086 21.7674C82.2086 23.1753 82.7155 24.4143 85.5877 24.4143C87.6526 24.4143 88.61 23.776 88.7977 22.5182H93.7912C93.5847 26.6857 90.8627 28.5442 85.5877 28.5442C79.8058 28.5442 77.3278 26.3478 77.3278 21.7674ZM110.094 20.2468C110.094 22.1616 109.212 23.7384 107.766 24.5832L110.094 28.3564H104.312L102.491 25.2778H99.6192V28.3564H94.7384V15.2158H105.063C108.048 15.2158 110.094 17.3183 110.094 20.2468ZM99.6192 19.3457V21.1479H104.125C104.613 21.1479 105.213 21.1479 105.213 20.2468C105.213 19.3457 104.613 19.3457 104.125 19.3457H99.6192ZM115.907 15.2158V28.3564H111.026V15.2158H115.907ZM127.355 15.2158C130.339 15.2158 132.386 17.3183 132.386 20.2468C132.386 23.1753 130.339 25.2778 127.355 25.2778H121.911V28.3564H117.03V15.2158H127.355ZM126.416 21.1479C126.904 21.1479 127.505 21.1479 127.505 20.2468C127.505 19.3457 126.904 19.3457 126.416 19.3457H121.911V21.1479H126.416ZM149.274 15.2158V19.3457H143.643V28.3564H138.762V19.3457H133.13V15.2158H149.274ZM59.9766 46.7197H64.8574C64.8574 47.3579 65.4581 47.7897 68.5556 47.7897C71.4465 47.7897 71.8783 47.602 71.8783 47.1139C71.8783 46.5507 71.4465 46.4756 68.3678 46.3818C62.4358 46.1941 60.1643 45.2179 60.1643 42.158C60.1643 39.2671 62.999 38.0281 68.1801 38.0281C73.305 38.0281 76.1959 39.2671 76.1959 42.6273H71.3151C71.3151 41.9327 70.1888 41.7825 67.8047 41.7825C65.5144 41.7825 65.0451 41.8952 65.0451 42.402C65.0451 42.9089 65.5144 42.8901 68.3678 43.0028C73.549 43.2092 76.7591 43.5659 76.7591 47.0013C76.7591 50.6243 73.7555 51.5442 68.3678 51.5442C62.9802 51.5442 59.9766 50.6243 59.9766 46.7197ZM92.9133 38.2158V42.3457H87.2816V51.3564H82.4008V42.3457H76.7691V38.2158H92.9133ZM109.994 44.7674C109.994 49.329 107.497 51.5442 101.734 51.5442C95.9522 51.5442 93.4742 49.3478 93.4742 44.7674V38.2158H98.355V44.7674C98.355 46.1753 98.8619 47.4143 101.734 47.4143C104.606 47.4143 105.113 46.1565 105.113 44.7674V38.2158H109.994V44.7674ZM120.505 38.2158C123.677 38.2158 126.662 40.3183 126.662 44.7861C126.662 49.2539 123.677 51.3564 120.505 51.3564H110.743V38.2158H120.505ZM119.003 47.2265C120.054 47.2265 121.781 47.2265 121.781 44.7861C121.781 42.3457 120.054 42.3457 119.003 42.3457H115.624V47.2265H119.003ZM132.105 38.2158V51.3564H127.224V38.2158H132.105ZM140.741 51.5442C134.959 51.5442 132.481 49.3478 132.481 44.7674C132.481 40.2057 134.959 38.0281 140.741 38.0281C146.504 38.0281 149.001 40.2244 149.001 44.7674C149.001 49.329 146.504 51.5442 140.741 51.5442ZM140.741 47.4143C143.613 47.4143 144.12 46.1565 144.12 44.7674C144.12 43.397 143.632 42.158 140.741 42.158C137.85 42.158 137.362 43.3782 137.362 44.7674C137.362 46.1753 137.869 47.4143 140.741 47.4143Z" fill="black"/>
<path d="M53.0931 28.2624L53.1514 13.8654L42.044 13.8072L41.6687 35.6066L49.0129 35.6066C46.9612 47.5439 36.7337 49.8288 31.8764 49.4791L31.9347 45.807C39.4421 46.5064 43.5728 41.3188 44.6997 38.6376L40.1532 38.521C35.77 44.0234 30.2055 41.7851 27.9711 39.9782L28.146 53.2095C35.0006 53.6292 39.8229 52.1797 41.3773 51.4026C51.9623 46.8795 53.5982 36.2672 53.0931 31.5265L45.982 31.2934L46.0403 17.8289L49.1295 17.8872L49.3044 28.4373L53.0931 28.2624Z" fill="black"/>
<path d="M39.0457 27.2716C33.8232 22.7951 28.7871 26.0281 26.9219 28.2042L22.4338 28.379C25.8844 21.4778 32.4204 20.9182 35.2571 21.5011L35.1405 17.7707C31.037 17.5842 27.2522 19.1308 25.8728 19.9274C19.7176 23.1915 17.9845 29.0202 17.8874 31.5266L25.0567 31.7014L25.1733 53.0347L13.9821 53.2678L14.0987 38.8125L17.9457 38.8125L17.8874 49.3626L21.268 49.1294L21.268 35.4901H13.9238C13.3176 31.1535 15.0701 26.4556 16.0222 24.6486C20.5919 15.8822 28.962 13.846 32.5758 13.9237L39.0457 13.8654L39.0457 27.2716Z" fill="#3A5FE6"/>
</svg>
