<svg width="61" height="61" viewBox="0 0 61 61" fill="none" xmlns="http://www.w3.org/2000/svg">
<path d="M24.875 43.625H23V40.8125H19.25V43.625H17.375V40.8125C17.3756 40.3154 17.5733 39.8388 17.9248 39.4873C18.2763 39.1358 18.7529 38.9381 19.25 38.9375H23C23.4971 38.9381 23.9737 39.1358 24.3252 39.4873C24.6767 39.8388 24.8744 40.3154 24.875 40.8125V43.625Z" fill="white"/>
<path d="M43.625 43.625H41.75V40.8125H38V43.625H36.125V40.8125C36.1256 40.3154 36.3233 39.8388 36.6748 39.4873C37.0263 39.1358 37.5029 38.9381 38 38.9375H41.75C42.2471 38.9381 42.7237 39.1358 43.0752 39.4873C43.4267 39.8388 43.6244 40.3154 43.625 40.8125V43.625Z" fill="white"/>
<path d="M34.25 43.625H32.375V40.8125H28.625V43.625H26.75V40.8125C26.7506 40.3154 26.9483 39.8388 27.2998 39.4873C27.6513 39.1358 28.1279 38.9381 28.625 38.9375H32.375C32.8721 38.9381 33.3487 39.1358 33.7002 39.4873C34.0517 39.8388 34.2494 40.3154 34.25 40.8125V43.625Z" fill="white"/>
<path d="M30.5 38C31.5355 38 32.375 37.1605 32.375 36.125C32.375 35.0895 31.5355 34.25 30.5 34.25C29.4645 34.25 28.625 35.0895 28.625 36.125C28.625 37.1605 29.4645 38 30.5 38Z" fill="white"/>
<path d="M21.125 38C22.1605 38 23 37.1605 23 36.125C23 35.0895 22.1605 34.25 21.125 34.25C20.0895 34.25 19.25 35.0895 19.25 36.125C19.25 37.1605 20.0895 38 21.125 38Z" fill="white"/>
<path d="M39.875 38C40.9105 38 41.75 37.1605 41.75 36.125C41.75 35.0895 40.9105 34.25 39.875 34.25C38.8395 34.25 38 35.0895 38 36.125C38 37.1605 38.8395 38 39.875 38Z" fill="white"/>
<path d="M35.1875 34.25C36.223 34.25 37.0625 33.4105 37.0625 32.375C37.0625 31.3395 36.223 30.5 35.1875 30.5C34.152 30.5 33.3125 31.3395 33.3125 32.375C33.3125 33.4105 34.152 34.25 35.1875 34.25Z" fill="white"/>
<path d="M25.8125 34.25C26.848 34.25 27.6875 33.4105 27.6875 32.375C27.6875 31.3395 26.848 30.5 25.8125 30.5C24.777 30.5 23.9375 31.3395 23.9375 32.375C23.9375 33.4105 24.777 34.25 25.8125 34.25Z" fill="white"/>
<path d="M39.875 28.625H21.125C20.6279 28.6244 20.1513 28.4267 19.7998 28.0752C19.4483 27.7237 19.2506 27.2471 19.25 26.75V19.25C19.2506 18.7529 19.4483 18.2763 19.7998 17.9248C20.1513 17.5733 20.6279 17.3756 21.125 17.375H39.875C40.3721 17.3756 40.8487 17.5733 41.2002 17.9248C41.5517 18.2763 41.7494 18.7529 41.75 19.25V26.75C41.7494 27.2471 41.5517 27.7237 41.2002 28.0752C40.8487 28.4267 40.3721 28.6244 39.875 28.625ZM21.125 19.25V26.75H39.875V19.25H21.125Z" fill="white"/>
<path d="M52.5 1H8.5C4.35786 1 1 4.35786 1 8.5V52.5C1 56.6421 4.35786 60 8.5 60H52.5C56.6421 60 60 56.6421 60 52.5V8.5C60 4.35786 56.6421 1 52.5 1Z" stroke="white" stroke-opacity="0.5"/>
</svg>
