<svg width="61" height="61" viewBox="0 0 61 61" fill="none" xmlns="http://www.w3.org/2000/svg">
<path d="M41.75 27.6875V19.25H33.3125V21.125H38.5494L30.5 29.1744L22.4506 21.125H27.6875V19.25H19.25V27.6875H21.125V22.4506L29.5625 30.8881V39.875H19.25V41.75H41.75V39.875H31.4375V30.8881L39.875 22.4506V27.6875H41.75Z" fill="white"/>
<path d="M52.5 1H8.5C4.35786 1 1 4.35786 1 8.5V52.5C1 56.6421 4.35786 60 8.5 60H52.5C56.6421 60 60 56.6421 60 52.5V8.5C60 4.35786 56.6421 1 52.5 1Z" stroke="white" stroke-opacity="0.5"/>
</svg>
