<svg width="61" height="61" viewBox="0 0 61 61" fill="none" xmlns="http://www.w3.org/2000/svg">
<path d="M29.5625 29.6059L27.1344 27.1777L25.8125 28.4996L29.5625 32.2496L36.125 25.6871L34.8031 24.3652L29.5625 29.6059Z" fill="white"/>
<path d="M29.2089 29.9595L29.5625 30.3131L29.9161 29.9595L34.8031 25.0723L35.4179 25.6871L29.5625 31.5425L26.5196 28.4996L27.1344 27.8848L29.2089 29.9595Z" stroke="white" stroke-opacity="0.2"/>
<path d="M43.625 27.5625H41.7024C41.4778 24.9153 40.3242 22.4329 38.4457 20.5543C36.5671 18.6758 34.0847 17.5222 31.4375 17.2976V15.375H29.5625V17.2976C26.9153 17.5222 24.4329 18.6758 22.5543 20.5543C20.6758 22.4329 19.5222 24.9153 19.2976 27.5625H17.375V29.4375H19.2976C19.5222 32.0847 20.6758 34.5671 22.5543 36.4457C24.4329 38.3242 26.9153 39.4778 29.5625 39.7024V41.625H31.4375V39.7024C34.0847 39.4778 36.5671 38.3242 38.4457 36.4457C40.3242 34.5671 41.4778 32.0847 41.7024 29.4375H43.625V27.5625ZM31.4375 37.8274V35.0625H29.5625V37.8274C27.4121 37.6082 25.4031 36.6538 23.8746 35.1254C22.3462 33.5969 21.3918 31.5879 21.1726 29.4375H23.9375V27.5625H21.1726C21.3918 25.4121 22.3462 23.4031 23.8746 21.8746C25.4031 20.3462 27.4121 19.3918 29.5625 19.1726V21.9375H31.4375V19.1726C33.5879 19.3918 35.5969 20.3462 37.1254 21.8746C38.6538 23.4031 39.6082 25.4121 39.8274 27.5625H37.0625V29.4375H39.8272C39.608 31.5879 38.6537 33.5969 37.1253 35.1253C35.5968 36.6538 33.5879 37.6082 31.4375 37.8274Z" fill="white"/>
<path d="M52.5 1H8.5C4.35786 1 1 4.35786 1 8.5V52.5C1 56.6421 4.35786 60 8.5 60H52.5C56.6421 60 60 56.6421 60 52.5V8.5C60 4.35786 56.6421 1 52.5 1Z" stroke="white" stroke-opacity="0.5"/>
</svg>
