<svg width="61" height="61" viewBox="0 0 61 61" fill="none" xmlns="http://www.w3.org/2000/svg">
<path d="M29.8301 29.8389L22.3325 37.3365L23.6584 38.6623L31.1559 31.1648L29.8301 29.8389Z" fill="white"/>
<path d="M31.4373 43.6251C31.3185 43.6253 31.2008 43.6031 31.0904 43.5594C30.9368 43.4982 30.8021 43.3974 30.7 43.2674C30.598 43.1373 30.5321 42.9825 30.5091 42.8188L29.5716 36.2563L31.4466 35.9938L32.1498 40.9344L35.1873 38.4876V31.4376C35.1865 31.3142 35.2102 31.1919 35.2568 31.0776C35.3035 30.9634 35.3722 30.8595 35.4591 30.7719L39.2748 26.9563C40.061 26.1754 40.6845 25.2464 41.1094 24.2229C41.5342 23.1995 41.7519 22.1019 41.7498 20.9938V19.2501H40.006C38.8979 19.248 37.8003 19.4656 36.7769 19.8904C35.7534 20.3153 34.8244 20.9388 34.0435 21.7251L30.2279 25.5407C30.1403 25.6276 30.0364 25.6963 29.9222 25.743C29.8079 25.7896 29.6856 25.8133 29.5623 25.8126H22.5123L20.0654 28.8688L25.006 29.5719L24.7435 31.4469L18.181 30.5094C18.0173 30.4865 17.8625 30.4206 17.7324 30.3185C17.6024 30.2164 17.5016 30.0818 17.4404 29.9282C17.3784 29.7735 17.3587 29.6051 17.3835 29.4403C17.4082 29.2756 17.4764 29.1204 17.581 28.9907L21.331 24.3032C21.4174 24.191 21.528 24.0998 21.6547 24.0365C21.7813 23.9731 21.9207 23.9393 22.0623 23.9376H29.1779L32.7123 20.3938C33.6677 19.433 34.8044 18.6714 36.0565 18.1532C37.3085 17.635 38.651 17.3705 40.006 17.3751H41.7498C42.247 17.3751 42.724 17.5726 43.0756 17.9242C43.4272 18.2759 43.6248 18.7528 43.6248 19.2501V20.9938C43.6293 22.3488 43.3648 23.6913 42.8466 24.9433C42.3284 26.1954 41.5668 27.3321 40.606 28.2876L37.0623 31.8219V38.9376C37.0616 39.0784 37.0292 39.2172 36.9676 39.3438C36.9059 39.4704 36.8165 39.5815 36.706 39.6688L32.0185 43.4188C31.8536 43.5511 31.6487 43.6238 31.4373 43.6251Z" fill="white"/>
<path d="M52.5 1H8.5C4.35786 1 1 4.35786 1 8.5V52.5C1 56.6421 4.35786 60 8.5 60H52.5C56.6421 60 60 56.6421 60 52.5V8.5C60 4.35786 56.6421 1 52.5 1Z" stroke="white" stroke-opacity="0.5"/>
</svg>
