<svg width="61" height="61" viewBox="0 0 61 61" fill="none" xmlns="http://www.w3.org/2000/svg">
<path d="M37.0625 28.625H33.3125V30.5H37.0625V28.625Z" fill="white"/>
<path d="M39.875 24.875H33.3125V26.75H39.875V24.875Z" fill="white"/>
<path d="M23.9375 32.375H29.5625C30.3084 32.375 31.0238 32.6713 31.5512 33.1988C32.0787 33.7262 32.375 34.4416 32.375 35.1875V37.0625H30.5V35.1875C30.5 34.9389 30.4012 34.7004 30.2254 34.5246C30.0496 34.3488 29.8111 34.25 29.5625 34.25H23.9375C23.6889 34.25 23.4504 34.3488 23.2746 34.5246C23.0988 34.7004 23 34.9389 23 35.1875V37.0625H21.125V35.1875C21.125 34.4416 21.4213 33.7262 21.9488 33.1988C22.4762 32.6713 23.1916 32.375 23.9375 32.375Z" fill="white"/>
<path d="M30.5 27.6875C30.5 26.9458 30.2801 26.2208 29.868 25.6041C29.456 24.9874 28.8703 24.5068 28.1851 24.223C27.4998 23.9391 26.7458 23.8649 26.0184 24.0096C25.291 24.1542 24.6228 24.5114 24.0983 25.0358C23.5739 25.5603 23.2167 26.2285 23.0721 26.9559C22.9274 27.6833 23.0016 28.4373 23.2855 29.1226C23.5693 29.8078 24.0499 30.3935 24.6666 30.8055C25.2833 31.2176 26.0083 31.4375 26.75 31.4375C27.7446 31.4375 28.6984 31.0424 29.4017 30.3392C30.1049 29.6359 30.5 28.6821 30.5 27.6875ZM28.625 27.6875C28.625 28.0583 28.515 28.4209 28.309 28.7292C28.103 29.0375 27.8101 29.2779 27.4675 29.4198C27.1249 29.5617 26.7479 29.5988 26.3842 29.5265C26.0205 29.4541 25.6864 29.2755 25.4242 29.0133C25.162 28.7511 24.9834 28.417 24.911 28.0533C24.8387 27.6896 24.8758 27.3126 25.0177 26.97C25.1596 26.6274 25.4 26.3345 25.7083 26.1285C26.0166 25.9225 26.3792 25.8125 26.75 25.8125C27.2473 25.8125 27.7242 26.01 28.0758 26.3617C28.4275 26.7133 28.625 27.1902 28.625 27.6875Z" fill="white"/>
<path d="M32.375 39.875H19.25V21.125H41.75V30.5H43.625V21.125C43.625 20.6277 43.4275 20.1508 43.0758 19.7992C42.7242 19.4475 42.2473 19.25 41.75 19.25H19.25C18.7527 19.25 18.2758 19.4475 17.9242 19.7992C17.5725 20.1508 17.375 20.6277 17.375 21.125V39.875C17.375 40.3723 17.5725 40.8492 17.9242 41.2008C18.2758 41.5525 18.7527 41.75 19.25 41.75H32.375V39.875Z" fill="white"/>
<path d="M34.25 37.0625L35.5756 38.3881L38 35.9637V43.625H39.875V35.9637L42.2994 38.3881L43.625 37.0625L38.9375 32.375L34.25 37.0625Z" fill="white"/>
<path d="M52.5 1H8.5C4.35786 1 1 4.35786 1 8.5V52.5C1 56.6421 4.35786 60 8.5 60H52.5C56.6421 60 60 56.6421 60 52.5V8.5C60 4.35786 56.6421 1 52.5 1Z" stroke="white" stroke-opacity="0.5"/>
</svg>
