<svg width="61" height="61" viewBox="0 0 61 61" fill="none" xmlns="http://www.w3.org/2000/svg">
<path d="M39.875 28.625H38V30.5H39.875C40.6207 30.5008 41.3356 30.7974 41.8628 31.3247C42.3901 31.8519 42.6867 32.5668 42.6875 33.3125V37.0625H44.5625V33.3125C44.5611 32.0697 44.0667 30.8783 43.188 29.9995C42.3092 29.1208 41.1178 28.6264 39.875 28.625Z" fill="white"/>
<path d="M38 19.25C38.5563 19.25 39.1 19.415 39.5625 19.724C40.0251 20.033 40.3855 20.4723 40.5984 20.9862C40.8113 21.5001 40.867 22.0656 40.7585 22.6112C40.6499 23.1568 40.3821 23.6579 39.9887 24.0512C39.5954 24.4446 39.0943 24.7124 38.5487 24.821C38.0031 24.9295 37.4376 24.8738 36.9237 24.6609C36.4098 24.448 35.9705 24.0876 35.6615 23.625C35.3524 23.1625 35.1875 22.6188 35.1875 22.0625C35.1875 21.3166 35.4838 20.6012 36.0113 20.0738C36.5387 19.5463 37.2541 19.25 38 19.25ZM38 17.375C37.0729 17.375 36.1666 17.6499 35.3958 18.165C34.6249 18.6801 34.0241 19.4121 33.6693 20.2687C33.3145 21.1252 33.2217 22.0677 33.4026 22.977C33.5834 23.8863 34.0299 24.7215 34.6854 25.3771C35.341 26.0326 36.1762 26.4791 37.0855 26.6599C37.9948 26.8408 38.9373 26.748 39.7938 26.3932C40.6504 26.0384 41.3824 25.4376 41.8975 24.6667C42.4126 23.8959 42.6875 22.9896 42.6875 22.0625C42.6875 20.8193 42.1936 19.627 41.3146 18.7479C40.4355 17.8689 39.2432 17.375 38 17.375Z" fill="white"/>
<path d="M37.0625 43.625H35.1875V41.75C35.1867 41.0043 34.8901 40.2894 34.3628 39.7622C33.8356 39.2349 33.1207 38.9383 32.375 38.9375H28.625C27.8793 38.9383 27.1644 39.2349 26.6372 39.7622C26.1099 40.2894 25.8133 41.0043 25.8125 41.75V43.625H23.9375V41.75C23.939 40.5072 24.4333 39.3158 25.3121 38.4371C26.1908 37.5583 27.3822 37.064 28.625 37.0625H32.375C33.6178 37.064 34.8092 37.5583 35.6879 38.4371C36.5667 39.3158 37.061 40.5072 37.0625 41.75V43.625Z" fill="white"/>
<path d="M30.5 27.6875C31.0563 27.6875 31.6 27.8525 32.0625 28.1615C32.5251 28.4705 32.8855 28.9098 33.0984 29.4237C33.3113 29.9376 33.367 30.5031 33.2585 31.0487C33.1499 31.5943 32.8821 32.0954 32.4887 32.4887C32.0954 32.8821 31.5943 33.1499 31.0487 33.2585C30.5031 33.367 29.9376 33.3113 29.4237 33.0984C28.9098 32.8855 28.4705 32.5251 28.1615 32.0625C27.8525 31.6 27.6875 31.0563 27.6875 30.5C27.6875 29.7541 27.9838 29.0387 28.5113 28.5113C29.0387 27.9838 29.7541 27.6875 30.5 27.6875ZM30.5 25.8125C29.5729 25.8125 28.6666 26.0874 27.8958 26.6025C27.1249 27.1176 26.5241 27.8496 26.1693 28.7062C25.8145 29.5627 25.7217 30.5052 25.9026 31.4145C26.0834 32.3238 26.5299 33.159 27.1854 33.8146C27.841 34.4701 28.6762 34.9166 29.5855 35.0974C30.4948 35.2783 31.4373 35.1855 32.2938 34.8307C33.1504 34.4759 33.8824 33.8751 34.3975 33.1042C34.9126 32.3334 35.1875 31.4271 35.1875 30.5C35.1875 29.2568 34.6936 28.0645 33.8146 27.1854C32.9355 26.3064 31.7432 25.8125 30.5 25.8125Z" fill="white"/>
<path d="M23 28.625H21.125C19.8822 28.6265 18.6908 29.1208 17.8121 29.9996C16.9333 30.8783 16.439 32.0697 16.4375 33.3125V37.0625H18.3125V33.3125C18.3133 32.5668 18.6099 31.8519 19.1372 31.3247C19.6644 30.7974 20.3793 30.5008 21.125 30.5H23V28.625Z" fill="white"/>
<path d="M23 19.25C23.5563 19.25 24.1 19.415 24.5625 19.724C25.0251 20.033 25.3855 20.4723 25.5984 20.9862C25.8113 21.5001 25.867 22.0656 25.7585 22.6112C25.6499 23.1568 25.3821 23.6579 24.9887 24.0512C24.5954 24.4446 24.0943 24.7124 23.5487 24.821C23.0031 24.9295 22.4376 24.8738 21.9237 24.6609C21.4098 24.448 20.9705 24.0876 20.6615 23.625C20.3525 23.1625 20.1875 22.6188 20.1875 22.0625C20.1875 21.3166 20.4838 20.6012 21.0113 20.0738C21.5387 19.5463 22.2541 19.25 23 19.25ZM23 17.375C22.0729 17.375 21.1666 17.6499 20.3958 18.165C19.6249 18.6801 19.0241 19.4121 18.6693 20.2687C18.3145 21.1252 18.2217 22.0677 18.4026 22.977C18.5834 23.8863 19.0299 24.7215 19.6854 25.3771C20.341 26.0326 21.1762 26.4791 22.0855 26.6599C22.9948 26.8408 23.9373 26.748 24.7938 26.3932C25.6504 26.0384 26.3824 25.4376 26.8975 24.6667C27.4126 23.8959 27.6875 22.9896 27.6875 22.0625C27.6875 20.8193 27.1936 19.627 26.3146 18.7479C25.4355 17.8689 24.2432 17.375 23 17.375Z" fill="white"/>
<path d="M52.5 1H8.5C4.35786 1 1 4.35786 1 8.5V52.5C1 56.6421 4.35786 60 8.5 60H52.5C56.6421 60 60 56.6421 60 52.5V8.5C60 4.35786 56.6421 1 52.5 1Z" stroke="white" stroke-opacity="0.5"/>
</svg>
