<svg width="61" height="61" viewBox="0 0 61 61" fill="none" xmlns="http://www.w3.org/2000/svg">
<path d="M30.5 32.375C31.5355 32.375 32.375 31.5356 32.375 30.5C32.375 29.4645 31.5355 28.625 30.5 28.625C29.4645 28.625 28.625 29.4645 28.625 30.5C28.625 31.5356 29.4645 32.375 30.5 32.375Z" fill="white"/>
<path d="M37.7908 30.0111C37.2115 28.5355 36.2119 27.2623 34.9159 26.3493C33.6199 25.4364 32.0845 24.9238 30.5 24.875C28.9155 24.9238 27.3801 25.4364 26.0841 26.3493C24.7881 27.2623 23.7885 28.5355 23.2092 30.0111L23 30.5L23.2092 30.9889C23.7885 32.4646 24.7881 33.7378 26.0841 34.6507C27.3801 35.5637 28.9155 36.0763 30.5 36.125C32.0845 36.0763 33.6199 35.5637 34.9159 34.6507C36.2119 33.7378 37.2115 32.4646 37.7908 30.9889L38 30.5L37.7908 30.0111ZM30.5 34.25C29.7583 34.25 29.0333 34.0301 28.4166 33.618C27.7999 33.206 27.3193 32.6203 27.0355 31.9351C26.7516 31.2499 26.6774 30.4959 26.8221 29.7684C26.9667 29.041 27.3239 28.3728 27.8483 27.8484C28.3728 27.3239 29.041 26.9668 29.7684 26.8221C30.4958 26.6774 31.2498 26.7517 31.9351 27.0355C32.6203 27.3193 33.206 27.8 33.618 28.4166C34.0301 29.0333 34.25 29.7584 34.25 30.5C34.2489 31.4943 33.8534 32.4474 33.1504 33.1505C32.4474 33.8535 31.4942 34.2489 30.5 34.25Z" fill="white"/>
<path d="M42.2224 23.1277L30.9724 16.5652C30.829 16.4816 30.666 16.4375 30.5 16.4375C30.334 16.4375 30.171 16.4816 30.0276 16.5652L18.7776 23.1277C18.6361 23.2103 18.5186 23.3285 18.437 23.4706C18.3554 23.6127 18.3125 23.7737 18.3125 23.9375V37.0625C18.3125 37.2264 18.3554 37.3874 18.437 37.5295C18.5186 37.6716 18.6361 37.7898 18.7776 37.8723L30.0276 44.4348C30.171 44.5185 30.334 44.5626 30.5 44.5626C30.666 44.5626 30.829 44.5185 30.9724 44.4348L42.2224 37.8723C42.3639 37.7898 42.4814 37.6716 42.563 37.5295C42.6446 37.3874 42.6875 37.2264 42.6875 37.0625V23.9375C42.6875 23.7737 42.6446 23.6127 42.563 23.4706C42.4814 23.3285 42.3639 23.2103 42.2224 23.1277ZM40.8125 36.5242L30.5 42.5397L20.1875 36.5242V24.4758L30.5 18.4604L40.8125 24.4758V36.5242Z" fill="white"/>
<path d="M52.5 1H8.5C4.35786 1 1 4.35786 1 8.5V52.5C1 56.6421 4.35786 60 8.5 60H52.5C56.6421 60 60 56.6421 60 52.5V8.5C60 4.35786 56.6421 1 52.5 1Z" stroke="white" stroke-opacity="0.5"/>
</svg>
