<svg width="61" height="61" viewBox="0 0 61 61" fill="none" xmlns="http://www.w3.org/2000/svg">
<path d="M33.3125 30.5V28.625H40.0353L37.8856 26.4753L39.2112 25.1497L43.625 29.5625L39.2112 33.9753L37.8856 32.6497L40.0353 30.5H33.3125Z" fill="white"/>
<path d="M31.4377 26.75H29.5627V20.9638L27.413 23.1134L26.0874 21.7878L30.5002 17.375L34.913 21.7878L33.5874 23.1134L31.4377 20.9638V26.75Z" fill="white"/>
<path d="M31.4375 34.3448V32.375C31.4364 31.3808 31.0409 30.4276 30.3379 29.7246C29.6349 29.0216 28.6817 28.6261 27.6875 28.625H20.9638L23.1135 26.4753L21.7878 25.1497L17.375 29.5625L21.7878 33.9753L23.1135 32.6497L20.9638 30.5H27.6875C28.1846 30.5006 28.6611 30.6984 29.0126 31.0499C29.3641 31.4014 29.5619 31.8779 29.5625 32.375V34.3448C28.4243 34.5771 27.413 35.2238 26.7245 36.1594C26.036 37.095 25.7195 38.253 25.8362 39.4087C25.953 40.5645 26.4947 41.6357 27.3564 42.4147C28.2181 43.1937 29.3384 43.6251 30.5 43.6251C31.6616 43.6251 32.7819 43.1937 33.6436 42.4147C34.5053 41.6357 35.047 40.5645 35.1638 39.4087C35.2805 38.253 34.964 37.095 34.2755 36.1594C33.587 35.2238 32.5757 34.5771 31.4375 34.3448ZM30.5 41.75C29.9437 41.75 29.4 41.585 28.9375 41.276C28.4749 40.967 28.1145 40.5277 27.9016 40.0138C27.6887 39.4999 27.633 38.9344 27.7415 38.3888C27.8501 37.8432 28.1179 37.3421 28.5113 36.9488C28.9046 36.5554 29.4057 36.2876 29.9513 36.179C30.4969 36.0705 31.0624 36.1262 31.5763 36.3391C32.0902 36.552 32.5295 36.9124 32.8385 37.375C33.1476 37.8375 33.3125 38.3812 33.3125 38.9375C33.3117 39.6832 33.0151 40.3981 32.4878 40.9253C31.9606 41.4526 31.2457 41.7492 30.5 41.75Z" fill="white"/>
<path d="M52.5 1H8.5C4.35786 1 1 4.35786 1 8.5V52.5C1 56.6421 4.35786 60 8.5 60H52.5C56.6421 60 60 56.6421 60 52.5V8.5C60 4.35786 56.6421 1 52.5 1Z" stroke="white" stroke-opacity="0.5"/>
</svg>
