<svg width="61" height="61" viewBox="0 0 61 61" fill="none" xmlns="http://www.w3.org/2000/svg">
<path d="M37.0625 17.375L38.5559 20.1875L41.75 20.5756L39.4062 22.6878L39.875 25.8125L37.0625 24.0547L34.25 25.8125L34.7187 22.6878L32.375 20.5756L35.6562 20.1875L37.0625 17.375Z" fill="white"/>
<path d="M36.797 27.9209L34.9806 27.4541C34.655 28.7087 33.9648 29.8387 32.9973 30.7013C32.0297 31.5639 30.8282 32.1203 29.5446 32.3004C28.261 32.4804 26.9527 32.276 25.7852 31.7129C24.6177 31.1498 23.6433 30.2533 22.9851 29.1367C22.3268 28.02 22.0143 26.7333 22.087 25.4392C22.1597 24.145 22.6144 22.9014 23.3935 21.8655C24.1726 20.8296 25.2413 20.0478 26.4646 19.619C27.6878 19.1902 29.0107 19.1336 30.2661 19.4562L30.7339 17.6408C28.9042 17.1655 26.9679 17.3192 25.2361 18.0771C23.5043 18.835 22.0776 20.1531 21.1852 21.8196C20.2928 23.4861 19.9866 25.4042 20.3157 27.2657C20.6448 29.1272 21.5902 30.824 23 32.0834V43.625L28.625 39.875L34.25 43.625V32.1011C35.495 30.9913 36.3816 29.5362 36.797 27.9209ZM32.375 40.1213L28.625 37.6214L24.875 40.1213V33.3594C26.0384 33.9439 27.3223 34.2488 28.6243 34.2498C29.9263 34.2508 31.2106 33.9479 32.375 33.3652V40.1213Z" fill="white"/>
<path d="M52.5 1H8.5C4.35786 1 1 4.35786 1 8.5V52.5C1 56.6421 4.35786 60 8.5 60H52.5C56.6421 60 60 56.6421 60 52.5V8.5C60 4.35786 56.6421 1 52.5 1Z" stroke="white" stroke-opacity="0.5"/>
</svg>
