<svg width="61" height="61" viewBox="0 0 61 61" fill="none" xmlns="http://www.w3.org/2000/svg">
<path d="M30.5 32.375H21.125C20.6277 32.375 20.1508 32.1775 19.7992 31.8258C19.4475 31.4742 19.25 30.9973 19.25 30.5V21.125C19.25 20.6277 19.4475 20.1508 19.7992 19.7992C20.1508 19.4475 20.6277 19.25 21.125 19.25H30.5C30.9973 19.25 31.4742 19.4475 31.8258 19.7992C32.1775 20.1508 32.375 20.6277 32.375 21.125V30.5C32.375 30.9973 32.1775 31.4742 31.8258 31.8258C31.4742 32.1775 30.9973 32.375 30.5 32.375ZM21.125 21.125V30.5H30.5V21.125H21.125Z" fill="white"/>
<path d="M39.875 26.75V30.5H36.125V26.75H39.875ZM39.875 24.875H36.125C35.6277 24.875 35.1508 25.0725 34.7992 25.4242C34.4475 25.7758 34.25 26.2527 34.25 26.75V30.5C34.25 30.9973 34.4475 31.4742 34.7992 31.8258C35.1508 32.1775 35.6277 32.375 36.125 32.375H39.875C40.3723 32.375 40.8492 32.1775 41.2008 31.8258C41.5525 31.4742 41.75 30.9973 41.75 30.5V26.75C41.75 26.2527 41.5525 25.7758 41.2008 25.4242C40.8492 25.0725 40.3723 24.875 39.875 24.875Z" fill="white"/>
<path d="M39.875 36.125V39.875H36.125V36.125H39.875ZM39.875 34.25H36.125C35.6277 34.25 35.1508 34.4475 34.7992 34.7992C34.4475 35.1508 34.25 35.6277 34.25 36.125V39.875C34.25 40.3723 34.4475 40.8492 34.7992 41.2008C35.1508 41.5525 35.6277 41.75 36.125 41.75H39.875C40.3723 41.75 40.8492 41.5525 41.2008 41.2008C41.5525 40.8492 41.75 40.3723 41.75 39.875V36.125C41.75 35.6277 41.5525 35.1508 41.2008 34.7992C40.8492 34.4475 40.3723 34.25 39.875 34.25Z" fill="white"/>
<path d="M30.5 36.125V39.875H26.75V36.125H30.5ZM30.5 34.25H26.75C26.2527 34.25 25.7758 34.4475 25.4242 34.7992C25.0725 35.1508 24.875 35.6277 24.875 36.125V39.875C24.875 40.3723 25.0725 40.8492 25.4242 41.2008C25.7758 41.5525 26.2527 41.75 26.75 41.75H30.5C30.9973 41.75 31.4742 41.5525 31.8258 41.2008C32.1775 40.8492 32.375 40.3723 32.375 39.875V36.125C32.375 35.6277 32.1775 35.1508 31.8258 34.7992C31.4742 34.4475 30.9973 34.25 30.5 34.25Z" fill="white"/>
<path d="M52.5 1H8.5C4.35786 1 1 4.35786 1 8.5V52.5C1 56.6421 4.35786 60 8.5 60H52.5C56.6421 60 60 56.6421 60 52.5V8.5C60 4.35786 56.6421 1 52.5 1Z" stroke="white" stroke-opacity="0.5"/>
</svg>
