<svg width="61" height="61" viewBox="0 0 61 61" fill="none" xmlns="http://www.w3.org/2000/svg">
<path d="M30.5 24C29.5729 24 28.6666 24.2749 27.8958 24.79C27.1249 25.3051 26.5241 26.0371 26.1693 26.8937C25.8145 27.7502 25.7217 28.6927 25.9026 29.602C26.0834 30.5113 26.5299 31.3465 27.1854 32.0021C27.841 32.6576 28.6762 33.1041 29.5855 33.2849C30.4948 33.4658 31.4373 33.373 32.2938 33.0182C33.1504 32.6634 33.8824 32.0626 34.3975 31.2917C34.9126 30.5209 35.1875 29.6146 35.1875 28.6875C35.1875 27.4443 34.6936 26.252 33.8146 25.3729C32.9355 24.4939 31.7432 24 30.5 24ZM30.5 31.5C29.9437 31.5 29.4 31.335 28.9375 31.026C28.475 30.717 28.1145 30.2777 27.9016 29.7638C27.6887 29.2499 27.633 28.6844 27.7415 28.1388C27.8501 27.5932 28.1179 27.0921 28.5113 26.6988C28.9046 26.3054 29.4057 26.0376 29.9513 25.929C30.4969 25.8205 31.0624 25.8762 31.5763 26.0891C32.0902 26.302 32.5295 26.6624 32.8385 27.125C33.1476 27.5875 33.3125 28.1312 33.3125 28.6875C33.3117 29.4332 33.0151 30.148 32.4878 30.6753C31.9605 31.2026 31.2457 31.4992 30.5 31.5Z" fill="white"/>
<path d="M30.5 18.375C27.9041 18.375 25.3665 19.1448 23.2081 20.587C21.0498 22.0292 19.3675 24.079 18.3741 26.4773C17.3807 28.8756 17.1208 31.5146 17.6272 34.0606C18.1336 36.6066 19.3837 38.9452 21.2192 40.7808C23.0548 42.6163 25.3934 43.8664 27.9394 44.3728C30.4854 44.8792 33.1244 44.6193 35.5227 43.6259C37.921 42.6325 39.9708 40.9503 41.413 38.7919C42.8552 36.6335 43.625 34.0959 43.625 31.5C43.6211 28.0202 42.237 24.6841 39.7765 22.2236C37.3159 19.763 33.9798 18.3789 30.5 18.375ZM24.875 41.228V39.9375C24.8758 39.1918 25.1724 38.4769 25.6997 37.9497C26.2269 37.4224 26.9418 37.1258 27.6875 37.125H33.3125C34.0582 37.1258 34.7731 37.4224 35.3003 37.9497C35.8276 38.4769 36.1242 39.1918 36.125 39.9375V41.228C34.418 42.2247 32.4767 42.75 30.5 42.75C28.5233 42.75 26.582 42.2247 24.875 41.228ZM37.993 39.8679C37.9743 38.6382 37.4733 37.465 36.5978 36.6011C35.7223 35.7373 34.5424 35.2521 33.3125 35.25H27.6875C26.4576 35.2521 25.2778 35.7373 24.4022 36.6011C23.5267 37.465 23.0257 38.6382 23.007 39.8679C21.3069 38.3499 20.108 36.3513 19.5691 34.1367C19.0301 31.9221 19.1765 29.5961 19.9889 27.4666C20.8013 25.337 22.2413 23.5045 24.1183 22.2116C25.9953 20.9187 28.2208 20.2264 30.5 20.2264C32.7792 20.2264 35.0047 20.9187 36.8817 22.2116C38.7587 23.5045 40.1987 25.337 41.0111 27.4666C41.8235 29.5961 41.9699 31.9221 41.4309 34.1367C40.892 36.3513 39.6931 38.3499 37.993 39.8679Z" fill="white"/>
<path d="M52.5 1H8.5C4.35786 1 1 4.35786 1 8.5V52.5C1 56.6421 4.35786 60 8.5 60H52.5C56.6421 60 60 56.6421 60 52.5V8.5C60 4.35786 56.6421 1 52.5 1Z" stroke="white" stroke-opacity="0.5"/>
</svg>
