<svg width="119" height="53" viewBox="0 0 119 53" fill="none" xmlns="http://www.w3.org/2000/svg">
<path d="M47.2041 18.4369H51.0455C51.0455 18.9392 51.5183 19.2791 53.9562 19.2791C56.2314 19.2791 56.5713 19.1313 56.5713 18.7472C56.5713 18.3039 56.2314 18.2448 53.8084 18.171C49.1396 18.0232 47.3519 17.2549 47.3519 14.8467C47.3519 12.5714 49.5829 11.5963 53.6607 11.5963C57.6941 11.5963 59.9694 12.5714 59.9694 15.216H56.128C56.128 14.6694 55.2415 14.5512 53.3652 14.5512C51.5627 14.5512 51.1933 14.6398 51.1933 15.0387C51.1933 15.4377 51.5627 15.4229 53.8084 15.5115C57.8862 15.6741 60.4127 15.9548 60.4127 18.6585C60.4127 21.51 58.0487 22.234 53.8084 22.234C49.5681 22.234 47.2041 21.51 47.2041 18.4369ZM60.8603 16.9003C60.8603 13.3101 62.8105 11.5963 67.3611 11.5963C71.498 11.5963 73.6551 13.0442 73.8176 16.3094H69.8876C69.7398 15.3342 68.9863 14.8467 67.3611 14.8467C65.0858 14.8467 64.7017 15.807 64.7017 16.9003C64.7017 18.0084 65.1006 18.9836 67.3611 18.9836C68.9863 18.9836 69.7398 18.4812 69.8876 17.4913H73.8176C73.6551 20.7713 71.5128 22.234 67.3611 22.234C62.8105 22.234 60.8603 20.5054 60.8603 16.9003ZM86.6488 15.7036C86.6488 17.2106 85.9544 18.4517 84.8168 19.1165L86.6488 22.0862H82.0983L80.6651 19.6632H78.4046V22.0862H74.5632V11.744H82.6892C85.0384 11.744 86.6488 13.3988 86.6488 15.7036ZM78.4046 14.9944V16.4128H81.9505C82.3346 16.4128 82.8074 16.4128 82.8074 15.7036C82.8074 14.9944 82.3346 14.9944 81.9505 14.9944H78.4046ZM91.2239 11.744V22.0862H87.3825V11.744H91.2239ZM100.234 11.744C102.583 11.744 104.193 13.3988 104.193 15.7036C104.193 18.0084 102.583 19.6632 100.234 19.6632H95.9489V22.0862H92.1075V11.744H100.234ZM99.4948 16.4128C99.8789 16.4128 100.352 16.4128 100.352 15.7036C100.352 14.9944 99.8789 14.9944 99.4948 14.9944H95.9489V16.4128H99.4948ZM117.485 11.744V14.9944H113.053V22.0862H109.211V14.9944H104.779V11.744H117.485ZM47.2041 36.4369H51.0455C51.0455 36.9392 51.5183 37.2791 53.9562 37.2791C56.2314 37.2791 56.5713 37.1313 56.5713 36.7472C56.5713 36.3039 56.2314 36.2448 53.8084 36.171C49.1396 36.0232 47.3519 35.2549 47.3519 32.8467C47.3519 30.5714 49.5829 29.5963 53.6607 29.5963C57.6941 29.5963 59.9694 30.5714 59.9694 33.216H56.128C56.128 32.6694 55.2415 32.5512 53.3652 32.5512C51.5627 32.5512 51.1933 32.6398 51.1933 33.0387C51.1933 33.4377 51.5627 33.4229 53.8084 33.5115C57.8862 33.6741 60.4127 33.9548 60.4127 36.6585C60.4127 39.51 58.0487 40.234 53.8084 40.234C49.5681 40.234 47.2041 39.51 47.2041 36.4369ZM73.1267 29.744V32.9944H68.6943V40.0862H64.8529V32.9944H60.4205V29.744H73.1267ZM86.5699 34.9003C86.5699 38.4906 84.6049 40.234 80.069 40.234C75.5185 40.234 73.5682 38.5054 73.5682 34.9003V29.744H77.4096V34.9003C77.4096 36.0084 77.8085 36.9836 80.069 36.9836C82.3296 36.9836 82.7285 35.9937 82.7285 34.9003V29.744H86.5699V34.9003ZM94.8425 29.744C97.3394 29.744 99.6886 31.3988 99.6886 34.9151C99.6886 38.4315 97.3394 40.0862 94.8425 40.0862H87.1597V29.744H94.8425ZM93.6606 36.8358C94.4879 36.8358 95.8472 36.8358 95.8472 34.9151C95.8472 32.9944 94.4879 32.9944 93.6606 32.9944H91.0011V36.8358H93.6606ZM103.972 29.744V40.0862H100.131V29.744H103.972ZM110.769 40.234C106.219 40.234 104.268 38.5054 104.268 34.9003C104.268 31.3101 106.219 29.5963 110.769 29.5963C115.305 29.5963 117.27 31.3249 117.27 34.9003C117.27 38.4906 115.305 40.234 110.769 40.234ZM110.769 36.9836C113.03 36.9836 113.429 35.9937 113.429 34.9003C113.429 33.8218 113.044 32.8467 110.769 32.8467C108.494 32.8467 108.11 33.807 108.11 34.9003C108.11 36.0084 108.509 36.9836 110.769 36.9836Z" fill="white"/>
<path d="M41.7865 22.2438L41.8324 10.9128L33.0904 10.867L32.7951 28.0241H38.5753C36.9605 37.4192 28.911 39.2175 25.0881 38.9423L25.134 36.0522C31.0426 36.6027 34.2936 32.5198 35.1805 30.4096L31.6023 30.3178C28.1525 34.6484 23.773 32.8868 22.0145 31.4647L22.1521 41.8783C27.547 42.2086 31.3423 41.0678 32.5657 40.4561C40.8965 36.8963 42.1841 28.544 41.7865 24.8128L36.1898 24.6293L36.2357 14.0323L38.667 14.0781L38.8046 22.3815L41.7865 22.2438Z" fill="white"/>
<path d="M30.7306 21.464C26.6203 17.9408 22.6567 20.4853 21.1887 22.198L17.6563 22.3356C20.3721 16.904 25.5162 16.4636 27.7488 16.9224L27.657 13.9864C24.4274 13.8396 21.4486 15.0568 20.3629 15.6838C15.5186 18.2528 14.1545 22.8402 14.0781 24.8129L19.7207 24.9505L19.8124 41.7407L11.0045 41.9242L11.0962 30.5472L14.124 30.5472L14.0781 38.8505L16.7388 38.667L16.7388 27.9323L10.9586 27.9323C10.4815 24.5193 11.8608 20.8218 12.6101 19.3996C16.2067 12.5001 22.7943 10.8975 25.6385 10.9587L30.7306 10.9128L30.7306 21.464Z" fill="#3A5FE6"/>
</svg>
