<svg width="64" height="64" viewBox="0 0 64 64" fill="none" xmlns="http://www.w3.org/2000/svg">
<path d="M32 0C14.3543 0 0 14.3543 0 32C0 49.6457 14.3543 64 32 64C49.6457 64 64 49.6457 64 32C64 14.3543 49.6457 0 32 0ZM32 4.57143C47.1771 4.57143 59.4286 16.8229 59.4286 32C59.4286 47.1771 47.1771 59.4286 32 59.4286C16.8229 59.4286 4.57143 47.1771 4.57143 32C4.57143 16.8229 16.8229 4.57143 32 4.57143ZM20.6857 17.4537L17.4537 20.6857L28.768 32L17.4537 43.3234L20.6857 46.5554L32 35.232L43.3234 46.5554L46.5554 43.3234L35.232 32L46.5554 20.6857L43.3234 17.4537L32 28.768L20.6857 17.4537Z" fill="black"/>
</svg>
